<svg width="44" height="44" viewBox="0 0 44 44" fill="none" xmlns="http://www.w3.org/2000/svg">
<path d="M39.6 0H4.4C1.96995 0 0 1.96995 0 4.4V39.6C0 42.0301 1.96995 44 4.4 44H39.6C42.0301 44 44 42.0301 44 39.6V4.4C44 1.96995 42.0301 0 39.6 0Z" fill="#8CC84B"/>
<path d="M21.0646 7.67796C21.4142 7.48251 21.8081 7.37988 22.2086 7.37988C22.6092 7.37988 23.003 7.48251 23.3526 7.67796C26.8363 9.64623 30.3202 11.6142 33.8044 13.5819C34.1321 13.7685 34.4049 14.0379 34.5957 14.3632C34.7864 14.6884 34.8883 15.0581 34.8912 15.4352V27.2817C34.8844 27.6727 34.7723 28.0545 34.5668 28.3872C34.3613 28.7198 34.07 28.9909 33.7234 29.172C30.251 31.1297 26.7794 33.0882 23.3086 35.0477C22.9525 35.2447 22.55 35.3427 22.1431 35.3314C21.7362 35.3201 21.3398 35.1999 20.9951 34.9835C19.9544 34.3798 18.9127 33.7776 17.8702 33.1768C17.6414 33.0731 17.4363 32.9237 17.2674 32.7377C17.4003 32.5617 17.6379 32.5362 17.8306 32.4579C18.2583 32.3048 18.6708 32.1121 19.0626 31.8824C19.112 31.8532 19.169 31.8395 19.2262 31.8429C19.2834 31.8464 19.3383 31.8669 19.3838 31.9017C20.2744 32.4121 21.1562 32.9375 22.0494 33.4426C22.2403 33.5526 22.433 33.4065 22.5958 33.3159C26.0032 31.3898 29.4117 29.4662 32.8214 27.5448C32.8823 27.5145 32.9325 27.4665 32.9656 27.4072C32.9987 27.3478 33.0132 27.2799 33.0071 27.2122C33.0071 23.3056 33.0071 19.3984 33.0071 15.4906C33.0133 15.4146 32.9956 15.3385 32.9565 15.273C32.9174 15.2076 32.8588 15.156 32.7889 15.1254C29.3275 13.1765 25.868 11.2267 22.4102 9.27604C22.3502 9.23499 22.2791 9.21302 22.2064 9.21302C22.1337 9.21302 22.0627 9.23499 22.0027 9.27604C18.5414 11.2261 15.0821 13.1768 11.6249 15.128C11.5547 15.1578 11.4958 15.209 11.4564 15.2742C11.4171 15.3395 11.3993 15.4155 11.4058 15.4915C11.4058 19.3981 11.4058 23.3053 11.4058 27.2131C11.3998 27.2806 11.4146 27.3483 11.4483 27.4072C11.4819 27.466 11.5328 27.5132 11.5941 27.5422C12.5175 28.0655 13.4412 28.5873 14.3652 29.1077C14.6214 29.2661 14.9082 29.3687 15.2068 29.4087C15.5053 29.4487 15.809 29.4253 16.0979 29.34C16.3483 29.2457 16.5639 29.0772 16.7159 28.857C16.868 28.6369 16.9492 28.3756 16.9489 28.108C16.9533 24.2237 16.9489 20.3394 16.9489 16.456C16.9478 16.4148 16.9555 16.3738 16.9715 16.3358C16.9874 16.2977 17.0112 16.2635 17.0412 16.2353C17.0713 16.2072 17.107 16.1857 17.146 16.1723C17.185 16.1589 17.2264 16.1539 17.2674 16.1576C17.7074 16.1576 18.1554 16.1515 18.5989 16.1576C18.6418 16.1596 18.6838 16.1706 18.7222 16.1898C18.7606 16.2091 18.7945 16.2362 18.8218 16.2693C18.8491 16.3025 18.8691 16.341 18.8806 16.3824C18.8921 16.4238 18.8947 16.4672 18.8884 16.5096C18.8884 20.4186 18.8928 24.3276 18.8884 28.2356C18.9179 28.7666 18.8045 29.2958 18.5599 29.768C18.3154 30.2402 17.9487 30.6382 17.498 30.9205C16.8957 31.2012 16.2363 31.3379 15.5721 31.3197C14.9078 31.3015 14.2569 31.129 13.6709 30.8158C12.6554 30.3089 11.6865 29.7114 10.6894 29.1684C10.3434 28.9879 10.0524 28.7173 9.84719 28.3853C9.64199 28.0532 9.53014 27.672 9.52344 27.2817V15.4352C9.52643 15.0502 9.63248 14.6731 9.83057 14.343C10.0287 14.0129 10.3116 13.7419 10.6498 13.5581C14.1229 11.5992 17.5945 9.63919 21.0646 7.67796Z" fill="#E6E6E6"/>
<path d="M24.0929 15.8822C25.627 15.6836 27.1861 15.9222 28.5906 16.5703C29.0996 16.8739 29.5204 17.3053 29.8114 17.8216C30.1023 18.3379 30.2533 18.9213 30.2494 19.5139C30.2296 19.5881 30.1837 19.6526 30.1202 19.6956C30.0567 19.7386 29.9797 19.7572 29.9036 19.748C29.4636 19.748 29.0236 19.7542 28.5836 19.748C28.4991 19.7426 28.4198 19.7058 28.361 19.645C28.3023 19.5841 28.2683 19.5035 28.2659 19.4189C28.2161 19.1319 28.1045 18.8592 27.9387 18.6197C27.7729 18.3802 27.5569 18.1796 27.3058 18.032C26.4702 17.7002 25.5679 17.5712 24.6729 17.6554C24.0133 17.6348 23.3609 17.7971 22.7879 18.1244C22.5906 18.2774 22.4462 18.4884 22.375 18.7277C22.3038 18.967 22.3094 19.2226 22.391 19.4585C22.5318 19.7938 22.919 19.8985 23.2358 20.0015C25.0609 20.4784 26.9943 20.4309 28.7842 21.0575C29.1686 21.1642 29.5234 21.3575 29.8215 21.6226C30.1196 21.8877 30.3529 22.2176 30.5037 22.5869C30.6832 23.1109 30.7266 23.672 30.6298 24.2173C30.533 24.7627 30.2991 25.2745 29.9502 25.7047C29.3191 26.3598 28.4992 26.8016 27.605 26.9684C26.4403 27.205 25.2454 27.2558 24.0648 27.1189C22.9317 27.0543 21.8453 26.6457 20.9504 25.9476C20.5954 25.6223 20.3167 25.2226 20.1341 24.777C19.9516 24.3314 19.8697 23.851 19.8944 23.3701C19.9025 23.2923 19.9409 23.2209 20.0014 23.1715C20.062 23.122 20.1396 23.0985 20.2174 23.1061C20.6574 23.1061 21.1018 23.1017 21.5444 23.1061C21.5854 23.1052 21.6262 23.1124 21.6643 23.1273C21.7025 23.1422 21.7373 23.1646 21.7668 23.1931C21.7963 23.2216 21.8198 23.2556 21.836 23.2932C21.8522 23.3309 21.8608 23.3714 21.8612 23.4124C21.8833 23.6856 21.9611 23.9515 22.0897 24.1937C22.2184 24.4358 22.3952 24.6491 22.6092 24.8203C23.5567 25.2865 24.6154 25.4791 25.6664 25.3765C26.546 25.4426 27.4238 25.2269 28.1726 24.7605C28.3447 24.5922 28.47 24.382 28.5361 24.1505C28.6021 23.919 28.6067 23.6743 28.5493 23.4405C28.4419 23.0498 28.0327 22.8676 27.6816 22.7488C25.8802 22.1786 23.9248 22.3854 22.1376 21.7412C21.7633 21.6318 21.4173 21.4424 21.1233 21.1863C20.8294 20.9301 20.5944 20.6133 20.4348 20.2575C20.2298 19.7265 20.178 19.1486 20.2853 18.5896C20.3927 18.0306 20.6549 17.513 21.042 17.0957C21.8854 16.3512 22.9592 15.9196 24.0833 15.8734L24.0929 15.8822Z" fill="#E6E6E6"/>
</svg>
